<svg version="1" xmlns="http://www.w3.org/2000/svg" width="1365.333" height="1365.333" viewBox="0 0 1024.000000 1024.000000"><path d="M478.5 35.7c-68 5.7-124.4 21.2-181 49.8-85.1 43-153.2 107.6-200.6 190.5C65 331.7 45.4 392.3 37.3 459.5c-2.5 21.5-2.5 83.5 0 105 6.8 56.9 21.5 107.7 45.2 156 47.8 97.5 123.9 173.6 221 221C369.3 973.6 437.1 989 512 989c47.3 0 89.5-5.9 133.3-18.5C805.7 924.2 931.8 794.7 973.9 633c17.8-68.7 20.1-142.3 6.5-213.5-21.7-113.3-87.8-218.8-180.9-288.7-74-55.5-158.7-87.5-250.9-94.8-11.7-.9-60.4-1.1-70.1-.3zm54 30.3c113.3 6 214.7 50.6 294.1 129.5 112.1 111.5 156.5 271 118.4 425-29.7 119.9-110.7 224.6-219.6 283.7-153.5 83.3-341.6 69.7-480.8-34.8-83.4-62.8-141.2-150-166-250.6-9.1-36.6-12.8-68.1-12.8-106.8 0-55.9 9.6-108.7 28.9-159 44.5-116 134.3-207.8 249-254.6 44.7-18.3 96.7-29.9 144.8-32.3 22.3-1.2 23.4-1.2 44-.1z"/><path d="M262.8 383.1c-17.5 17.5-31.8 32-31.8 32.3 0 .3 50.4.7 112 .8l112 .3v159l48.8 48.8 48.7 48.7 72.2-.2 72.3-.3-32.1-32.3-32.1-32.2h-48.3l-23.8-23.8-23.7-23.8-.3-104.4-.2-104.5-121-.1-121-.1-31.7 31.8z"/><path d="M633 463.8v112.7l48.3 48.3 48.2 48.2H891V351h-81v257h-48.5l-24.3-24.3-24.2-24.2V351h-80v112.8zM150.2 495.5c-26.5 26.4-48.1 48.4-48 49 .2.5 29.1 29.7 64.4 64.8l64 63.7 144.7-.2 144.6-.3-31.8-32.3-31.7-32.2H262.5l-31.8-31.8-31.9-31.9 48.1-47.9c26.5-26.3 48.1-48.1 48.1-48.4 0-.3-21.7-.5-48.2-.5h-48.3l-48.3 48z"/></svg>