<svg xmlns="http://www.w3.org/2000/svg" viewBox="0 0 1024 1024"><title>CW Logo</title><circle cx="512" cy="512" r="512" fill="#00cc0b"/><circle cx="512" cy="512" r="462" fill="none" stroke="#333" stroke-linecap="round" stroke-linejoin="round" stroke-width="30"/><polygon points="262.603 608.307 198.203 543.907 294.803 447.307 198.203 447.307 101.603 543.907 230.403 672.707 520.203 672.707 455.803 608.307 262.603 608.307" fill="#333"/><polygon points="809.999 350.707 809.999 608.307 761.699 608.307 713.399 560.007 713.399 350.707 632.899 350.707 632.899 576.107 729.499 672.707 890.499 672.707 890.499 350.707 809.999 350.707" fill="#333"/><polygon points="632.899 608.307 584.599 608.307 536.299 560.007 536.299 415.107 536.299 350.707 455.799 350.707 294.803 350.707 230.403 415.107 455.799 415.107 455.799 576.107 552.399 672.707 697.299 672.707 632.899 608.307" fill="#333"/></svg>